<?xml version="1.0" standalone="no"?><!DOCTYPE svg PUBLIC "-//W3C//DTD SVG 1.1//EN" "http://www.w3.org/Graphics/SVG/1.1/DTD/svg11.dtd"><svg t="1622424823268" class="icon" viewBox="0 0 1024 1024" version="1.1" xmlns="http://www.w3.org/2000/svg" p-id="2015" xmlns:xlink="http://www.w3.org/1999/xlink" width="200" height="200"><defs><style type="text/css"></style></defs><path d="M190.261409 355.983383c-12.785706 12.255718-18.891565 30.789291-14.403669 49.238866 3.975908 16.349624 15.369646 28.951333 29.735316 35.097192-9.10779 15.18965-10.117767 34.677201-0.931979 51.294818 8.147812 14.737661 22.471483 23.89745 37.961126 26.035401-4.78789 17.051607-0.663985 36.111168 12.573711 49.722855 11.73373 12.065722 27.945356 17.071607 43.442999 15.065653a51.530813 51.530813 0 0 0 11.209742 32.489252h408.468594c11.887726-10.627755 17.733592-25.661409 17.061607-40.593065 17.637594 1.607963 35.63118-5.945863 46.608927-21.435507 9.729776-13.727684 11.763729-30.593296 6.977839-45.466953 17.439598-3.091929 32.807245-15.117652 39.321095-32.951241 5.771867-15.805636 3.293924-32.611249-5.23988-45.698948 16.009631-7.575826 27.669363-23.223465 29.257327-42.143029 1.405968-16.767614-5.409875-32.329256-17.089607-42.707017 13.44969-11.523735 20.577526-29.689316 17.127606-48.358886-3.05793-16.545619-13.731684-29.763315-27.731362-36.701155 9.941771-14.657662 12.035723-34.059216 3.789913-51.162822-7.307832-15.157651-21.083515-25.097422-36.415161-28.103353 5.729868-16.757614 2.641939-36.02717-9.813774-50.35484-11.039746-12.697708-26.947379-18.65957-42.531021-17.523597 1.115974-17.675593-6.93784-35.451184-22.727477-45.992941-13.993678-9.343785-30.909288-10.905749-45.644949-5.705868-3.577918-17.347601-16.025631-32.373255-34.035216-38.387116-15.961632-5.329877-32.691247-2.381945-45.534951 6.51385C583.678349 12.363295 567.712717 1.143554 548.757154 0.085578c-16.801613-0.937978-32.165259 6.309855-42.215028 18.273579-11.893726-13.123698-30.251303-19.743545-48.816876-15.771637-16.455621 3.517919-29.369324 14.555665-35.913173 28.745338-14.929656-9.527781-34.381208-11.079745-51.24882-2.361945-14.959656 7.731822-24.513436 21.795498-27.083376 37.219143-16.911611-5.261879-36.079169-1.669962-50.054848 11.181742-12.387715 11.391738-17.845589 27.457368-16.271625 43.00501-17.719592-0.643985-35.291187 7.903818-45.400955 23.999447-8.949794 14.249672-10.039769 31.203281-4.429898 45.784946-17.239603 4.059907-31.913265 16.92361-37.421138 35.093192-4.881888 16.103629-1.469966 32.745246 7.781821 45.336956-15.561642 8.455805-26.331394 24.729431-26.861382 43.706994-0.473989 16.817613 7.199834 31.973264 19.439553 41.68504z" fill="#554E56" p-id="2016"></path><path d="M190.261409 355.983383c-12.785706 12.255718-18.891565 30.791291-14.403669 49.238866 3.975908 16.349624 15.369646 28.951333 29.735316 35.097192-9.10779 15.18965-10.117767 34.677201-0.931979 51.292818 8.147812 14.737661 22.471483 23.89745 37.961126 26.035401-4.78789 17.051607-0.663985 36.111168 12.573711 49.722855 11.73373 12.065722 27.945356 17.071607 43.442999 15.065653a51.570812 51.570812 0 0 0 9.681777 30.489298h46.944919l6.205857-13.441691c-56.178706-60.934597-90.525915-142.300723-90.525915-231.716664 0-181.435822 141.288746-329.848404 319.838635-341.278141C582.510376 11.583313 567.034733 1.103555 548.755154 0.081578c-16.801613-0.937978-32.165259 6.309855-42.215028 18.273579-11.893726-13.123698-30.251303-19.741545-48.816876-15.771636-16.455621 3.517919-29.369324 14.555665-35.913173 28.745338-14.929656-9.527781-34.381208-11.081745-51.24882-2.361946-14.959656 7.731822-24.513436 21.795498-27.083376 37.219143-16.911611-5.261879-36.079169-1.669962-50.054848 11.181742-12.387715 11.391738-17.845589 27.457368-16.271625 43.00501-17.719592-0.643985-35.291187 7.903818-45.400955 23.999447-8.949794 14.249672-10.039769 31.203281-4.429898 45.784946-17.239603 4.059907-31.913265 16.92361-37.421138 35.093192-4.881888 16.103629-1.469966 32.745246 7.781821 45.336956-15.561642 8.455805-26.331394 24.729431-26.861382 43.708994-0.471989 16.819613 7.201834 31.975264 19.441553 41.68704z" fill="#433F43" p-id="2017"></path><path d="M407.270412 612.927466h-158.990339c-56.89469 0-103.015628 46.120938-103.015628 103.015628v287.433381c0 11.377738 9.223788 20.603526 20.603526 20.603525h241.402441z" fill="#F3F0F3" p-id="2018"></path><path d="M228.00654 1003.374475v-287.433381a102.50164 102.50164 0 0 1 16.93761-56.572698v-8.591802c0-13.237695 2.223949-25.959402 6.261855-37.851128h-2.925932c-56.89469 0-103.015628 46.122938-103.015628 103.015628v287.433381c0 11.377738 9.223788 20.603526 20.603526 20.603526h82.742094c-11.379738 0-20.603526-9.223788-20.603525-20.603526z" fill="#E2DEE2" p-id="2019"></path><path d="M775.719927 612.927466h-158.990339V1023.978001H858.132029c11.379738 0 20.603526-9.223788 20.603526-20.603526v-287.433381c0-56.89269-46.120938-103.013628-103.015628-103.013628z" fill="#F3F0F3" p-id="2020"></path><path d="M779.05585 751.386278v-100.609684c0-65.074502-52.942781-118.015282-118.015282-118.015282h-28.277349c-0.357992 0.251994-0.707984 0.513988-1.067975 0.763982l-1.379968 0.957978 13.055699 28.277349h17.669593c48.532882 0 88.015973 39.483091 88.015973 88.015973v100.609684c-35.19519 6.995839-61.808577 38.107122-61.808576 75.328265v144.724667a14.999655 14.999655 0 0 0 14.999654 14.999655h28.66534c8.285809 0 14.999655-6.715845 14.999655-14.999655s-6.713845-14.999655-14.999655-14.999654h-13.665685v-129.725013c0-25.811406 20.999516-46.808922 46.808922-46.808922s46.808922 20.999516 46.808922 46.808922v129.725013h-13.665685c-8.285809 0-14.999655 6.715845-14.999655 14.999654s6.713845 14.999655 14.999655 14.999655h28.66534a14.999655 14.999655 0 0 0 14.999654-14.999655v-144.724667c0.002-37.219143-26.613387-68.330427-61.808577-75.328265zM380.629025 562.760621l13.057699-28.277349-1.381968-0.957978c-0.359992-0.249994-0.709984-0.511988-1.067975-0.763982h-28.275349c-65.074502 0-118.015282 52.940781-118.015282 118.015282v114.915354c4.815889-1.151973 9.835774-1.779959 14.999654-1.779959s10.183765 0.627986 14.999655 1.779959v-114.915354c0-48.532882 39.485091-88.015973 88.015973-88.015973z" fill="#A79BA7" p-id="2021"></path><path d="M259.943804 828.420504m-51.506814 0a51.506814 51.506814 0 1 0 103.013628 0 51.506814 51.506814 0 1 0-103.013628 0Z" fill="#B5ADB6" p-id="2022"></path><path d="M249.496045 828.420504c0-21.147513 12.749706-39.309095 30.977286-47.242912a51.320818 51.320818 0 0 0-20.529527-4.265902c-28.447345 0-51.508814 23.061469-51.508814 51.506814 0 28.447345 23.061469 51.508814 51.508814 51.508814 7.299832 0 14.237672-1.527965 20.529527-4.265902-18.22758-7.929817-30.977287-26.091399-30.977286-47.240912z" fill="#A79BA7" p-id="2023"></path><path d="M259.943804 894.928972c-36.671156 0-66.506469-29.835313-66.506468-66.506468s29.835313-66.506469 66.506468-66.506469c36.673156 0 66.508468 29.835313 66.508469 66.506469s-29.835313 66.506469-66.508469 66.506468z m0-103.015628c-20.129536 0-36.507159 16.377623-36.507159 36.50716s16.377623 36.507159 36.507159 36.507159c20.131536 0 36.509159-16.377623 36.509159-36.507159s-16.377623-36.507159-36.509159-36.50716z" fill="#554E56" p-id="2024"></path><path d="M409.270366 543.789058a172.41203 172.41203 0 0 1-17.221604-10.531757l-84.268059 182.503797a10.00177 10.00177 0 0 0 4.181903 12.911703l97.30576 54.642741V543.789058zM716.219297 715.761098l-84.268059-182.503797a171.670047 171.670047 0 0 1-17.221604 10.531757v239.526484l97.30576-54.642741a9.99977 9.99977 0 0 0 4.183903-12.911703z" fill="#E2DEE2" p-id="2025"></path><path d="M409.270366 745.984402l-1.999954-1.519965-70.316381 63.642534a9.99977 9.99977 0 0 0-2.709938 10.767752L407.270412 1023.978001l1.999954-8.149813zM687.045969 808.108971l-70.316381-63.642534-1.999954 1.519965v269.843786l1.999954 8.149812 73.026319-205.101277a9.99777 9.99777 0 0 0-2.709938-10.769752z" fill="#FFFFFF" p-id="2026"></path><path d="M614.729634 751.206282L524.999701 686.691767V1021.978047h-25.999402V686.691767l-89.729933 64.514515h-1.999954V1023.978001h209.459176V751.206282z" fill="#FE99A0" p-id="2027"></path><path d="M407.270412 755.106192V1023.978001h42.921011V724.246903z" fill="#FD8087" p-id="2028"></path><path d="M616.729588 542.743082a169.988086 169.988086 0 0 1-82.300104 21.153513h-44.858968a169.988086 169.988086 0 0 1-82.300104-21.153513v212.36511l89.729933-64.514515V1023.978001h29.99931V690.591678l89.729933 64.514514z" fill="#FDB4BA" p-id="2029"></path><path d="M534.429484 563.896595h-44.858968a170.350077 170.350077 0 0 1-52.868782-8.399807l66.41847 128.303046c3.729914 7.203834 14.031677 7.203834 17.761591 0l66.418471-128.303046a170.392076 170.392076 0 0 1-52.870782 8.399807z" fill="#A44F3E" p-id="2030"></path><path d="M489.570516 565.896549a173.016016 173.016016 0 0 1-51.522813-7.79982l65.072501 125.703105c3.729914 7.203834 14.031677 7.203834 17.761591 0l22.549481-43.558997-38.485114-74.342288h-15.375646zM318.504456 392.830534v-95.11181h-14.595664c-34.137214 0-61.808577 27.673363-61.808577 61.810577v23.00347c0 34.137214 27.673363 61.808577 61.808577 61.808577h22.535481a170.440075 170.440075 0 0 1-7.939817-51.510814z" fill="#883F2E" p-id="2031"></path><path d="M720.091208 297.716724h-14.595664v95.11181a170.408076 170.408076 0 0 1-7.939817 51.508814h22.535481c34.137214 0 61.808577-27.673363 61.808577-61.808577v-23.00347c0.002-34.135214-27.671363-61.808577-61.808577-61.808577z" fill="#A44F3E" p-id="2032"></path><path d="M537.763407 217.610569l-10.319763 13.929679a51.508814 51.508814 0 0 1-41.389047 20.84952h-138.644807c-17.067607 0-30.905288 13.835681-30.905288 30.905288v109.533478c0 95.581799 77.484216 173.066015 173.066014 173.066015h44.858968c95.581799 0 173.066015-77.484216 173.066014-173.066015v-144.560671c0-28.447345-23.061469-51.508814-51.508814-51.508814h-76.83623a51.512814 51.512814 0 0 0-41.387047 20.85152z" fill="#BB5D4C" p-id="2033"></path><path d="M380.609026 392.828534V283.295056c0-17.067607 13.835681-30.905288 30.905288-30.905288h-64.104524c-17.067607 0-30.905288 13.835681-30.905288 30.905288v109.533478c0 95.581799 77.484216 173.066015 173.066014 173.066015h44.858968c3.229926 0 6.435852-0.103998 9.623778-0.279994-91.103902-4.993885-163.444236-80.434148-163.444236-172.786021z" fill="#A44F3E" p-id="2034"></path><path d="M419.286135 369.10908a14.999655 14.999655 0 0 1-14.999655-14.999654v-44.218982a14.999655 14.999655 0 0 1 29.99931 0v44.218982a14.999655 14.999655 0 0 1-14.999655 14.999654zM604.713865 369.10908a14.999655 14.999655 0 0 1-14.999655-14.999654v-44.218982c0-8.283809 6.713845-14.999655 14.999655-14.999655s14.999655 6.715845 14.999655 14.999655v44.218982a14.999655 14.999655 0 0 1-14.999655 14.999654z" fill="#883F2E" p-id="2035"></path><path d="M512 413.328062h-23.273464a14.997655 14.997655 0 0 1-14.181674-19.879542l23.273465-67.646442a14.999655 14.999655 0 1 1 28.365346 9.759775l-16.433621 47.7669H512c8.285809 0 14.999655 6.715845 14.999655 14.999655s-6.713845 14.999655-14.999655 14.999654z" fill="#883F2E" p-id="2036"></path><path d="M512 500.806048c-23.267464 0-45.15096-9.071791-61.622581-25.541412a14.999655 14.999655 0 0 1 0-21.211512 14.999655 14.999655 0 0 1 21.211512 0c10.803751 10.805751 25.155421 16.755614 40.409069 16.755615s29.605318-5.951863 40.40907-16.755615a14.999655 14.999655 0 0 1 21.213511 21.211512c-16.469621 16.469621-38.353117 25.541412-61.620581 25.541412z" fill="#883F2E" p-id="2037"></path></svg>