<?xml version="1.0" standalone="no"?><!DOCTYPE svg PUBLIC "-//W3C//DTD SVG 1.1//EN" "http://www.w3.org/Graphics/SVG/1.1/DTD/svg11.dtd"><svg t="1622424929599" class="icon" viewBox="0 0 1024 1024" version="1.1" xmlns="http://www.w3.org/2000/svg" p-id="2174" width="64" height="64" xmlns:xlink="http://www.w3.org/1999/xlink"><defs><style type="text/css"></style></defs><path d="M284.778 293.202h33.722v-22.092c0-15.274 7.23-29.95 19.344-39.258l48.14-36.99c0.384-0.296 0.814-0.448 1.274-0.448 1.05 0 2.138 0.796 2.138 2.128v49.488c0 2.276 0.898 4.38 2.53 5.924a8.348 8.348 0 0 0 5.68 2.268 8.08 8.08 0 0 0 4.958-1.706L477.6 194.86c0.384-0.296 0.814-0.448 1.274-0.448 1.05 0 2.138 0.796 2.138 2.128v49.488c0 2.276 0.898 4.38 2.53 5.924a8.348 8.348 0 0 0 5.68 2.268 8.08 8.08 0 0 0 4.958-1.706l87.834-67.492a39.412 39.412 0 0 1 23.888-8.118h42.57c31.448 0 57.032 25.584 57.032 57.032v59.262h33.722a61.308 61.308 0 0 1 28.79 7.152V154.528C768.012 69.184 698.828 0 613.484 0H410.516c-85.344 0-154.528 69.184-154.528 154.528v145.826a61.308 61.308 0 0 1 28.79-7.152z" fill="#BB5D4C" p-id="2175"></path><path d="M284.778 291.202h31.722v-20.092a51.506 51.506 0 0 1 20.126-40.844l5.372-4.128V154.528C341.996 69.184 411.18 0 496.524 0h-86.008c-85.344 0-154.528 69.184-154.528 154.528v143.558a63.376 63.376 0 0 1 28.79-6.884z" fill="#A44F3E" p-id="2176"></path><path d="M190.116 938.434V616l-2-3.062c-51.206 0-92.716 41.51-92.716 92.716v230.78l8.402 2zM835.884 612.938l-2 3.062v322.434h87.276l7.438-2v-230.78c0.002-51.204-41.508-92.716-92.714-92.716z" fill="#D8ECFE" p-id="2177"></path><path d="M188.116 612.938c-51.206 0-92.716 41.51-92.716 92.716v230.78h42.86v-230.78c0-35.738 20.232-66.732 49.856-82.21z" fill="#C4E2FF" p-id="2178"></path><path d="M190.116 936.434H95.4v66.962c0 11.38 9.224 20.604 20.604 20.604h72.112l2-4.18zM833.884 936.434v83.386l2 4.18h72.112c11.378 0 20.604-9.224 20.604-20.604v-66.962z" fill="#FED2A4" p-id="2179"></path><path d="M138.26 1003.396v-66.962H95.4v66.962c0 11.38 9.224 20.604 20.604 20.604h42.86c-11.38 0-20.604-9.224-20.604-20.604z" fill="#FFBD86" p-id="2180"></path><path d="M188.116 612.94h647.768v411.062H188.116z" fill="#8AC9FE" p-id="2181"></path><path d="M188.116 612.94h86.128v411.062H188.116z" fill="#60B7FF" p-id="2182"></path><path d="M519.08 680.718c-1.408 2.678-4.054 4.276-7.08 4.276s-5.672-1.598-7.08-4.276l-7.92-15.056v169.814c0 8.284 6.714 15 15 15s15-6.716 15-15v-169.814z" fill="#C4E2FF" p-id="2183"></path><path d="M581.758 561.574l-39.018 74.17 73.368 70.756c6.542 6.308 17.454 1.672 17.454-7.416v-157.218a149.276 149.276 0 0 1-51.804 19.708zM442.244 561.574a149.27 149.27 0 0 1-51.806-19.708v157.218c0 9.088 10.912 13.724 17.454 7.416l73.37-70.756z" fill="#D8ECFE" p-id="2184"></path><path d="M390.438 544.264v154.82c0 9.088 10.912 13.724 17.454 7.416l25.814-24.896v-119.78a151.22 151.22 0 0 1-43.268-17.56z" fill="#C4E2FF" p-id="2185"></path><path d="M555.33 563.908h-86.66c-9.902 0-19.574-0.99-28.946-2.828l63.426 120.57c3.748 7.126 13.952 7.126 17.7 0l63.426-120.57a150.252 150.252 0 0 1-28.946 2.828z" fill="#FFBD86" p-id="2186"></path><path d="M468.67 565.908c-9.486 0-18.754-0.912-27.76-2.572l62.24 118.314c3.748 7.126 13.952 7.126 17.7 0l19.404-36.884-41.484-78.858zM318.5 413.738v-122.536h-33.722c-35.18 0-63.7 28.52-63.7 63.7v19.224c0 35.18 28.52 63.7 63.7 63.7h35.68a150.4 150.4 0 0 1-1.958-24.088z" fill="#F6A96C" p-id="2187"></path><path d="M739.222 291.202H705.5v122.536c0 8.2-0.686 16.242-1.958 24.09h35.68c35.18 0 63.7-28.52 63.7-63.7v-19.224c0-35.182-28.52-63.702-63.7-63.702z" fill="#FFBD86" p-id="2188"></path><path d="M648.468 174.908H605.9c-9.08 0-17.906 3-25.108 8.532l-87.834 67.492c-4.066 3.124-9.948 0.226-9.948-4.902V196.542c0-3.418-3.922-5.35-6.632-3.268l-75.034 57.656c-4.066 3.124-9.948 0.226-9.948-4.902V196.542c0-3.418-3.922-5.35-6.632-3.268l-48.14 36.99a51.51 51.51 0 0 0-20.124 40.844v142.628c0 84.042 68.128 152.17 152.17 152.17h86.66c84.042 0 152.17-68.128 152.17-152.17v-179.798c0-32.6-26.43-59.03-59.032-59.03z" fill="#FED2A4" p-id="2189"></path><path d="M380.606 413.738v-142.628a51.504 51.504 0 0 1 10.79-31.514V196.542c0-3.418-3.922-5.35-6.632-3.268l-48.14 36.99a51.51 51.51 0 0 0-20.124 40.844v142.628c0 84.042 68.128 152.17 152.17 152.17h64.106c-84.042 0.002-152.17-68.128-152.17-152.168z" fill="#FFBD86" p-id="2190"></path><path d="M419.284 369.116a15 15 0 0 1-15-15v-44.22c0-8.284 6.714-15 15-15s15 6.716 15 15v44.22a15 15 0 0 1-15 15zM604.716 369.116a15 15 0 0 1-15-15v-44.22c0-8.284 6.714-15 15-15s15 6.716 15 15v44.22a15 15 0 0 1-15 15zM511.996 413.336a14.948 14.948 0 0 1-10.052-3.87l-24.706-22.32a15.004 15.004 0 0 1-3.606-17.324l24.706-54.484a15.004 15.004 0 0 1 27.324 12.39l-20.182 44.504 16.576 14.974a15.002 15.002 0 0 1-10.06 26.13z" fill="#A44F3E" p-id="2191"></path><path d="M512 499.102c-29.938 0-59.876-11.394-82.666-34.186a15 15 0 0 1 21.214-21.212c33.882 33.882 89.02 33.882 122.902 0a15 15 0 0 1 21.214 0 15 15 0 0 1 0 21.212c-22.788 22.792-52.726 34.186-82.664 34.186z" fill="#A44F3E" p-id="2192"></path><path d="M766.454 861.232h-33.996a6.182 6.182 0 0 1-6.182-6.182v-33.996a6.182 6.182 0 0 0-6.182-6.182h-39.146a6.182 6.182 0 0 0-6.182 6.182v33.996a6.182 6.182 0 0 1-6.182 6.182h-33.996a6.182 6.182 0 0 0-6.182 6.182v39.146a6.182 6.182 0 0 0 6.182 6.182h33.996a6.182 6.182 0 0 1 6.182 6.182v33.996a6.182 6.182 0 0 0 6.182 6.182h39.146a6.182 6.182 0 0 0 6.182-6.182v-33.996a6.182 6.182 0 0 1 6.182-6.182h33.996a6.182 6.182 0 0 0 6.182-6.182v-39.146a6.18 6.18 0 0 0-6.182-6.182z" fill="#26A6FE" p-id="2193"></path><path d="M702.314 938.226a6.182 6.182 0 0 1-6.182-6.182v-33.996a6.182 6.182 0 0 0-6.182-6.182h-33.996a6.182 6.182 0 0 1-6.182-6.182v-24.454h-15.182a6.182 6.182 0 0 0-6.182 6.182v39.146a6.182 6.182 0 0 0 6.182 6.182h33.996a6.182 6.182 0 0 1 6.182 6.182v33.996a6.182 6.182 0 0 0 6.182 6.182h39.146a6.182 6.182 0 0 0 6.182-6.182v-14.692z" fill="#0593FC" p-id="2194"></path><path d="M434.736 959.098h-177.192a6.182 6.182 0 0 1-6.182-6.182v-111.26a6.182 6.182 0 0 1 6.182-6.182h177.192a6.182 6.182 0 0 1 6.182 6.182v111.26a6.18 6.18 0 0 1-6.182 6.182z" fill="#FFFFFF" p-id="2195"></path><path d="M314.206 952.918v-111.26a6.182 6.182 0 0 1 6.182-6.182h-62.842a6.182 6.182 0 0 0-6.182 6.182v111.26a6.182 6.182 0 0 0 6.182 6.182h62.842a6.182 6.182 0 0 1-6.182-6.182zM377.046 803.088h-61.81c-8.286 0-15-6.716-15-15s6.714-15 15-15h61.81c8.286 0 15 6.716 15 15s-6.714 15-15 15z" fill="#F3F0F3" p-id="2196"></path></svg>