<?xml version="1.0" standalone="no"?><!DOCTYPE svg PUBLIC "-//W3C//DTD SVG 1.1//EN" "http://www.w3.org/Graphics/SVG/1.1/DTD/svg11.dtd"><svg t="1622425001293" class="icon" viewBox="0 0 1024 1024" version="1.1" xmlns="http://www.w3.org/2000/svg" p-id="2409" width="16" height="16" xmlns:xlink="http://www.w3.org/1999/xlink"><defs><style type="text/css"></style></defs><path d="M316.032 287.406l1.24-0.51v-10.926c0-24.472 19.908-44.696 44.378-45.082l1.968-0.032v-14.832c0-32.98 26.832-59.81 59.812-59.81h267.378c32.98 0 59.81 26.83 59.81 59.81v14.832l1.968 0.032c24.47 0.386 44.38 20.61 44.38 45.082v10.926l1.24 0.51a60.254 60.254 0 0 1 14.924 8.832V154.528C813.132 69.184 743.946 0 658.604 0H455.634c-85.344 0-154.528 69.184-154.528 154.528v141.71a60.268 60.268 0 0 1 14.926-8.832z" fill="#BB5D4C" p-id="2410"></path><path d="M315.272 285.556v-9.586c0-25.72 20.724-46.678 46.348-47.082v-12.862c0-20.654 10.142-38.93 25.706-50.154v-11.344C387.324 69.184 456.508 0 541.852 0h-86.216c-85.344 0-154.528 69.184-154.528 154.528v139.14a61.8 61.8 0 0 1 14.164-8.112z" fill="#A44F3E" p-id="2411"></path><path d="M363.62 413.738v-8.548c-26.846-8.558-46.348-33.726-46.348-63.372v-57.09c-23.564 8.72-40.362 31.388-40.362 57.982v23.004c0 34.138 27.674 61.81 61.81 61.81h25.554a152.43 152.43 0 0 1-0.654-13.786zM796.968 284.728v57.09c0 29.646-19.502 54.814-46.348 63.372v8.548a151.7 151.7 0 0 1-0.656 13.786h25.554c34.138 0 61.81-27.674 61.81-61.81v-23.004c0-26.594-16.798-49.262-40.36-57.982z" fill="#F6A96C" p-id="2412"></path><path d="M461.692 612.938H260.428l-2 3.062v20.898a8.588 8.588 0 0 1-8.578 8.578h-15.736v323.512c0 29.172-23.686 52.912-52.836 53.008L181.104 1024h280.588zM881.004 612.938H652.546V1024h300.57c11.38 0 20.604-9.224 20.604-20.604v-297.74c0-51.206-41.51-92.718-92.716-92.718z" fill="#F3F0F3" p-id="2413"></path><path d="M463.692 555.318a150.11 150.11 0 0 1-44.154-24.702l-64.826 142.282a10.302 10.302 0 0 0 3.6 12.802l105.38 71.34zM757.598 672.964l-63.524-141.856a150.148 150.148 0 0 1-43.526 24.214v201.094l103.462-70.736a10.304 10.304 0 0 0 3.588-12.716z" fill="#E2DEE2" p-id="2414"></path><path d="M463.692 704.042l-104.67 60.896a10.302 10.302 0 0 0-4.268 13.01L461.692 1024l2-2zM753.302 764.954l-102.756-60.374V1022l2 2 105.012-246.12a10.3 10.3 0 0 0-4.256-12.926z" fill="#FFFFFF" p-id="2415"></path><path d="M600.452 563.906h-86.664a149.838 149.838 0 0 1-52.094-9.294V1024h190.854V554.612a149.858 149.858 0 0 1-52.096 9.294z" fill="#FE99A0" p-id="2416"></path><path d="M461.692 680.934V1024h42.826V637.278z" fill="#FD8087" p-id="2417"></path><path d="M506.582 565.706v-1.978a149.6 149.6 0 0 1-44.89-9.116v126.322l66.568-67.856zM607.658 563.728v1.978l-21.678 47.372 66.568 67.856v-126.322a149.614 149.614 0 0 1-44.89 9.116z" fill="#FDB4BA" p-id="2418"></path><path d="M564.394 660.246c-1.318 2.88-4.106 4.672-7.274 4.672s-5.958-1.792-7.276-4.672l-7.726-16.882V1024h30V643.366z" fill="#FD8087" p-id="2419"></path><path d="M600.452 563.906h-86.664c-3.504 0-6.968-0.164-10.41-0.4l44.65 97.572c3.562 7.786 14.624 7.786 18.186 0l44.65-97.572c-3.446 0.236-6.91 0.4-10.412 0.4z" fill="#F6A96C" p-id="2420"></path><path d="M513.79 565.908c-3.18 0-6.33-0.13-9.462-0.322l43.698 95.494c3.562 7.786 14.624 7.786 18.186 0l11.866-25.93-31.686-69.242z" fill="#EA9B58" p-id="2421"></path><path d="M362.372 230.87h389.494c0.252 0 0.502 0.016 0.754 0.02v-14.862c0-34.138-27.674-61.81-61.81-61.81h-267.38c-34.138 0-61.81 27.674-61.81 61.81v14.862c0.25-0.006 0.5-0.02 0.752-0.02z" fill="#F6A96C" p-id="2422"></path><path d="M362.372 228.87h63.562v-12.844c0-34.138 27.674-61.81 61.81-61.81h-64.314c-34.138 0-61.81 27.674-61.81 61.81v12.862c0.252-0.004 0.5-0.018 0.752-0.018z" fill="#EA9B58" p-id="2423"></path><path d="M730.466 408.32h-110.698a34.304 34.304 0 0 1-30.496-18.48l-9.88-18.924h-44.548l-9.88 18.924a34.3 34.3 0 0 1-30.496 18.48h-110.698c-7.766 0-15.22-1.35-22.154-3.808v9.226c0 84.042 68.128 152.17 152.17 152.17h86.66c84.042 0 152.17-68.128 152.17-152.17v-9.226a66.134 66.134 0 0 1-22.15 3.808z" fill="#EAF6FF" p-id="2424"></path><path d="M425.934 413.738v-3.416h-42.16c-7.752 0-15.2-1.314-22.154-3.698v7.114c0 84.042 68.128 152.17 152.17 152.17h64.314c-84.042 0-152.17-68.13-152.17-152.17z" fill="#D8ECFE" p-id="2425"></path><path d="M770.968 275.97c0-10.534-8.57-19.102-19.102-19.102H362.372c-10.532 0-19.1 8.568-19.1 19.102v65.848c0 22.332 18.168 40.502 40.502 40.502h110.698c3.14 0 5.994-1.728 7.446-4.512l10.526-20.162a23.63 23.63 0 0 1 21.01-12.73h47.334c8.86 0 16.91 4.878 21.01 12.73l10.524 20.162a8.38 8.38 0 0 0 7.448 4.512h110.698c22.334 0 40.502-18.17 40.502-40.502v-65.848z" fill="#8AC9FE" p-id="2426"></path><path d="M770.968 341.818v-65.848c0-10.534-8.57-19.102-19.102-19.102h-21.182v125.44c22.232-0.118 40.284-18.232 40.284-40.49zM562.002 291.78a15 15 0 0 0-19.066 9.3l-15.35 44.58a23.8 23.8 0 0 1 5.866-0.744h26.118l11.732-34.07a15 15 0 0 0-9.3-19.066z" fill="#26A6FE" p-id="2427"></path><path d="M427.526 261.338c0-1.548 0.22-3.04 0.598-4.468h-65.752c-10.532 0-19.1 8.568-19.1 19.102v65.848c0 22.332 18.168 40.502 40.502 40.502h53.67c-6.148-6.876-9.918-15.922-9.918-25.87z" fill="#60B7FF" p-id="2428"></path><path d="M362.372 256.87c-10.532 0-19.1 8.568-19.1 19.102v65.848c0 22.26 18.054 40.374 40.286 40.492v-125.44h-21.186z" fill="#26A6FE" p-id="2429"></path><path d="M730.466 410.32h-110.698a36.292 36.292 0 0 1-32.268-19.554l-9.32-17.85h-42.124l-9.32 17.85a36.286 36.286 0 0 1-32.268 19.554h-110.698c-37.772 0-68.502-30.73-68.502-68.502v-65.848c0-25.972 21.128-47.102 47.1-47.102h389.494c25.972 0 47.102 21.128 47.102 47.102v65.848c0.004 37.772-30.726 68.502-68.498 68.502z m-197.014-67.404h47.334c9.606 0 18.336 5.29 22.782 13.804l10.526 20.162a6.384 6.384 0 0 0 5.674 3.438h110.698c21.23 0 38.502-17.272 38.502-38.502v-65.848c0-9.43-7.672-17.102-17.102-17.102H362.372c-9.43 0-17.1 7.672-17.1 17.102v65.848c0 21.23 17.272 38.502 38.502 38.502h110.698a6.376 6.376 0 0 0 5.672-3.438v-0.002l10.526-20.16a25.624 25.624 0 0 1 22.782-13.804z" fill="#0593FC" p-id="2430"></path><path d="M458.014 350.602a15 15 0 0 1-15-15v-32.014c0-8.286 6.716-15 15-15s15 6.714 15 15v32.014a15 15 0 0 1-15 15zM656.226 350.602a15 15 0 0 1-15-15v-32.014c0-8.286 6.716-15 15-15s15 6.714 15 15v32.014a15 15 0 0 1-15 15z" fill="#26A6FE" p-id="2431"></path><path d="M622.31 514.638h-130.382c-8.284 0-15-6.714-15-15s6.716-15 15-15h130.382c8.284 0 15 6.714 15 15s-6.716 15-15 15zM649.836 461.068h-185.432c-8.284 0-15-6.714-15-15s6.716-15 15-15h185.432c8.284 0 15 6.714 15 15s-6.716 15-15 15z" fill="#C4E2FF" p-id="2432"></path><path d="M126.092 645.476v68.44l2.59 2h104.532l2.902-2v-68.44z" fill="#D8ECFE" p-id="2433"></path><path d="M126.092 647.476h43.064v66.44H126.092z" fill="#C4E2FF" p-id="2434"></path><path d="M126.092 713.916v53.51l32.138 0.002c13.214 0 23.966 10.75 23.966 23.962 0 7.596-3.512 14.584-9.638 19.174a6.02 6.02 0 0 0-2.4 4.794 6.02 6.02 0 0 0 2.4 4.796c6.126 4.588 9.638 11.576 9.638 19.17s-3.512 14.582-9.638 19.168a6.026 6.026 0 0 0-2.4 4.798 6.02 6.02 0 0 0 2.398 4.792c6.128 4.592 9.64 11.58 9.64 19.174s-3.512 14.582-9.638 19.174a6.014 6.014 0 0 0-2.4 4.792c0 1.876 0.896 3.672 2.4 4.798 6.126 4.588 9.638 11.574 9.638 19.168 0 13.214-10.75 23.964-23.966 23.964H126.092v9.83c0 30.382 24.63 55.012 55.012 55.012s55.012-24.63 55.012-55.012V713.916z" fill="#FE646F" p-id="2435"></path><path d="M169.154 968.988v-10.272a25.76 25.76 0 0 1-10.926 2.444H126.092v7.828C126.092 999.37 150.72 1024 181.104 1024c7.642 0 14.918-1.562 21.532-4.376-19.682-8.38-33.482-27.896-33.482-50.636zM158.228 765.428c3.906 0 7.6 0.892 10.926 2.444v-53.956H126.092v51.51z" fill="#FD4755" p-id="2436"></path><path d="M249.85 647.476H112.356a10.576 10.576 0 0 1-10.576-10.576v-50.768a10.576 10.576 0 0 1 10.576-10.576h137.494a10.576 10.576 0 0 1 10.576 10.576v50.768a10.574 10.574 0 0 1-10.576 10.576z" fill="#8AC9FE" p-id="2437"></path><path d="M163.798 636.9v-50.768a10.576 10.576 0 0 1 10.576-10.576h-62.02a10.576 10.576 0 0 0-10.576 10.576v50.768a10.576 10.576 0 0 0 10.576 10.576h62.02a10.578 10.578 0 0 1-10.576-10.576z" fill="#60B7FF" p-id="2438"></path><path d="M94.79 765.424c-24.544 0-44.51 19.968-44.51 44.512v106.712c0 24.544 19.966 44.51 44.51 44.51h63.438c14.316 0 25.966-11.648 25.966-25.966 0-8.232-3.804-15.8-10.438-20.768a4 4 0 0 1 0-6.394c6.634-4.972 10.438-12.542 10.438-20.772s-3.804-15.802-10.438-20.772a4 4 0 0 1 0-6.392c6.634-4.97 10.438-12.538 10.438-20.77s-3.804-15.802-10.438-20.77a4 4 0 0 1 0-6.392c6.634-4.97 10.438-12.54 10.438-20.772 0-14.314-11.65-25.964-25.966-25.964z" fill="#F6A96C" p-id="2439"></path><path d="M94.79 961.158H118.98c-7.73-9.364-12.394-21.348-12.394-34.412v-129.83a53.86 53.86 0 0 1 10.134-31.492H94.79c-24.544 0-44.51 19.968-44.51 44.512v106.71c0 24.546 19.966 44.512 44.51 44.512z" fill="#EA9B58" p-id="2440"></path><path d="M913.562 1024v-85.506a6.182 6.182 0 0 0-6.182-6.182h-148.346a6.182 6.182 0 0 0-6.182 6.182V1024z" fill="#E2DEE2" p-id="2441"></path><path d="M821.054 932.314h-62.02a6.182 6.182 0 0 0-6.182 6.182V1024h62.02v-85.506a6.184 6.184 0 0 1 6.182-6.18z" fill="#CBC4CC" p-id="2442"></path></svg>